<?xml version="1.0" encoding="UTF-8" standalone="no"?>
<!DOCTYPE svg PUBLIC "-//W3C//DTD SVG 1.1//EN"
 "http://www.w3.org/Graphics/SVG/1.1/DTD/svg11.dtd">
<!-- Generated by graphviz version 13.1.2 (20250808.2320)
 -->
<!-- Title: data_pipeline_dag Pages: 1 -->
<svg width="610pt" height="69pt"
 viewBox="0.00 0.00 610.00 69.00" xmlns="http://www.w3.org/2000/svg" xmlns:xlink="http://www.w3.org/1999/xlink">
<g id="graph0" class="graph" transform="scale(1 1) rotate(0) translate(4 64.5)">
<title>data_pipeline_dag</title>
<polygon fill="white" stroke="none" points="-4,4 -4,-64.5 605.75,-64.5 605.75,4 -4,4"/>
<text xml:space="preserve" text-anchor="middle" x="300.88" y="-43.2" font-family="Times,serif" font-size="14.00">data_pipeline_dag</text>
<!-- check_prerequisites -->
<g id="node1" class="node">
<title>check_prerequisites</title>
<path fill="#ffefeb" stroke="#000000" d="M111.25,-36C111.25,-36 12,-36 12,-36 6,-36 0,-30 0,-24 0,-24 0,-12 0,-12 0,-6 6,0 12,0 12,0 111.25,0 111.25,0 117.25,0 123.25,-6 123.25,-12 123.25,-12 123.25,-24 123.25,-24 123.25,-30 117.25,-36 111.25,-36"/>
<text xml:space="preserve" text-anchor="middle" x="61.62" y="-12.95" font-family="Times,serif" font-size="14.00">check_prerequisites</text>
</g>
<!-- setup_environment -->
<g id="node3" class="node">
<title>setup_environment</title>
<path fill="#ffefeb" stroke="#000000" d="M267.5,-36C267.5,-36 171.25,-36 171.25,-36 165.25,-36 159.25,-30 159.25,-24 159.25,-24 159.25,-12 159.25,-12 159.25,-6 165.25,0 171.25,0 171.25,0 267.5,0 267.5,0 273.5,0 279.5,-6 279.5,-12 279.5,-12 279.5,-24 279.5,-24 279.5,-30 273.5,-36 267.5,-36"/>
<text xml:space="preserve" text-anchor="middle" x="219.38" y="-12.95" font-family="Times,serif" font-size="14.00">setup_environment</text>
</g>
<!-- check_prerequisites&#45;&gt;setup_environment -->
<g id="edge1" class="edge">
<title>check_prerequisites&#45;&gt;setup_environment</title>
<path fill="none" stroke="black" d="M123.73,-18C131.52,-18 139.54,-18 147.47,-18"/>
<polygon fill="black" stroke="black" points="147.46,-21.5 157.46,-18 147.46,-14.5 147.46,-21.5"/>
</g>
<!-- run_data_pipeline_bash -->
<g id="node2" class="node">
<title>run_data_pipeline_bash</title>
<path fill="#f0ede4" stroke="#000000" d="M448.5,-36C448.5,-36 327.5,-36 327.5,-36 321.5,-36 315.5,-30 315.5,-24 315.5,-24 315.5,-12 315.5,-12 315.5,-6 321.5,0 327.5,0 327.5,0 448.5,0 448.5,0 454.5,0 460.5,-6 460.5,-12 460.5,-12 460.5,-24 460.5,-24 460.5,-30 454.5,-36 448.5,-36"/>
<text xml:space="preserve" text-anchor="middle" x="388" y="-12.95" font-family="Times,serif" font-size="14.00">run_data_pipeline_bash</text>
</g>
<!-- validate_outputs -->
<g id="node4" class="node">
<title>validate_outputs</title>
<path fill="#ffefeb" stroke="#000000" d="M589.75,-36C589.75,-36 508.5,-36 508.5,-36 502.5,-36 496.5,-30 496.5,-24 496.5,-24 496.5,-12 496.5,-12 496.5,-6 502.5,0 508.5,0 508.5,0 589.75,0 589.75,0 595.75,0 601.75,-6 601.75,-12 601.75,-12 601.75,-24 601.75,-24 601.75,-30 595.75,-36 589.75,-36"/>
<text xml:space="preserve" text-anchor="middle" x="549.12" y="-12.95" font-family="Times,serif" font-size="14.00">validate_outputs</text>
</g>
<!-- run_data_pipeline_bash&#45;&gt;validate_outputs -->
<g id="edge2" class="edge">
<title>run_data_pipeline_bash&#45;&gt;validate_outputs</title>
<path fill="none" stroke="black" d="M460.65,-18C468.74,-18 476.94,-18 484.92,-18"/>
<polygon fill="black" stroke="black" points="484.88,-21.5 494.88,-18 484.88,-14.5 484.88,-21.5"/>
</g>
<!-- setup_environment&#45;&gt;run_data_pipeline_bash -->
<g id="edge3" class="edge">
<title>setup_environment&#45;&gt;run_data_pipeline_bash</title>
<path fill="none" stroke="black" d="M279.59,-18C287.41,-18 295.54,-18 303.67,-18"/>
<polygon fill="black" stroke="black" points="303.62,-21.5 313.62,-18 303.62,-14.5 303.62,-21.5"/>
</g>
</g>
</svg>
