<?xml version="1.0" encoding="UTF-8" standalone="no"?>
<!DOCTYPE svg PUBLIC "-//W3C//DTD SVG 1.1//EN"
 "http://www.w3.org/Graphics/SVG/1.1/DTD/svg11.dtd">
<!-- Generated by graphviz version 13.1.2 (20250808.2320)
 -->
<!-- Title: inference_dag Pages: 1 -->
<svg width="897pt" height="69pt"
 viewBox="0.00 0.00 897.00 69.00" xmlns="http://www.w3.org/2000/svg" xmlns:xlink="http://www.w3.org/1999/xlink">
<g id="graph0" class="graph" transform="scale(1 1) rotate(0) translate(4 64.5)">
<title>inference_dag</title>
<polygon fill="white" stroke="none" points="-4,4 -4,-64.5 893.25,-64.5 893.25,4 -4,4"/>
<text xml:space="preserve" text-anchor="middle" x="444.62" y="-43.2" font-family="Times,serif" font-size="14.00">inference_dag</text>
<!-- check_inference_prerequisites -->
<g id="node1" class="node">
<title>check_inference_prerequisites</title>
<path fill="#ffefeb" stroke="#000000" d="M168.25,-36C168.25,-36 12,-36 12,-36 6,-36 0,-30 0,-24 0,-24 0,-12 0,-12 0,-6 6,0 12,0 12,0 168.25,0 168.25,0 174.25,0 180.25,-6 180.25,-12 180.25,-12 180.25,-24 180.25,-24 180.25,-30 174.25,-36 168.25,-36"/>
<text xml:space="preserve" text-anchor="middle" x="90.12" y="-12.95" font-family="Times,serif" font-size="14.00">check_inference_prerequisites</text>
</g>
<!-- setup_inference_environment -->
<g id="node3" class="node">
<title>setup_inference_environment</title>
<path fill="#ffefeb" stroke="#000000" d="M381.5,-36C381.5,-36 228.25,-36 228.25,-36 222.25,-36 216.25,-30 216.25,-24 216.25,-24 216.25,-12 216.25,-12 216.25,-6 222.25,0 228.25,0 228.25,0 381.5,0 381.5,0 387.5,0 393.5,-6 393.5,-12 393.5,-12 393.5,-24 393.5,-24 393.5,-30 387.5,-36 381.5,-36"/>
<text xml:space="preserve" text-anchor="middle" x="304.88" y="-12.95" font-family="Times,serif" font-size="14.00">setup_inference_environment</text>
</g>
<!-- check_inference_prerequisites&#45;&gt;setup_inference_environment -->
<g id="edge1" class="edge">
<title>check_inference_prerequisites&#45;&gt;setup_inference_environment</title>
<path fill="none" stroke="black" d="M180.73,-18C188.68,-18 196.76,-18 204.78,-18"/>
<polygon fill="black" stroke="black" points="204.56,-21.5 214.56,-18 204.56,-14.5 204.56,-21.5"/>
</g>
<!-- run_inference_bash -->
<g id="node2" class="node">
<title>run_inference_bash</title>
<path fill="#f0ede4" stroke="#000000" d="M679,-36C679,-36 580.5,-36 580.5,-36 574.5,-36 568.5,-30 568.5,-24 568.5,-24 568.5,-12 568.5,-12 568.5,-6 574.5,0 580.5,0 580.5,0 679,0 679,0 685,0 691,-6 691,-12 691,-12 691,-24 691,-24 691,-30 685,-36 679,-36"/>
<text xml:space="preserve" text-anchor="middle" x="629.75" y="-12.95" font-family="Times,serif" font-size="14.00">run_inference_bash</text>
</g>
<!-- validate_inference_outputs -->
<g id="node4" class="node">
<title>validate_inference_outputs</title>
<path fill="#ffefeb" stroke="#000000" d="M877.25,-36C877.25,-36 739,-36 739,-36 733,-36 727,-30 727,-24 727,-24 727,-12 727,-12 727,-6 733,0 739,0 739,0 877.25,0 877.25,0 883.25,0 889.25,-6 889.25,-12 889.25,-12 889.25,-24 889.25,-24 889.25,-30 883.25,-36 877.25,-36"/>
<text xml:space="preserve" text-anchor="middle" x="808.12" y="-12.95" font-family="Times,serif" font-size="14.00">validate_inference_outputs</text>
</g>
<!-- run_inference_bash&#45;&gt;validate_inference_outputs -->
<g id="edge2" class="edge">
<title>run_inference_bash&#45;&gt;validate_inference_outputs</title>
<path fill="none" stroke="black" d="M691.45,-18C699.17,-18 707.2,-18 715.28,-18"/>
<polygon fill="black" stroke="black" points="715.18,-21.5 725.18,-18 715.18,-14.5 715.18,-21.5"/>
</g>
<!-- wait_for_model -->
<g id="node5" class="node">
<title>wait_for_model</title>
<path fill="#91818a" stroke="#000000" d="M520.5,-36C520.5,-36 441.5,-36 441.5,-36 435.5,-36 429.5,-30 429.5,-24 429.5,-24 429.5,-12 429.5,-12 429.5,-6 435.5,0 441.5,0 441.5,0 520.5,0 520.5,0 526.5,0 532.5,-6 532.5,-12 532.5,-12 532.5,-24 532.5,-24 532.5,-30 526.5,-36 520.5,-36"/>
<text xml:space="preserve" text-anchor="middle" x="481" y="-12.95" font-family="Times,serif" font-size="14.00">wait_for_model</text>
</g>
<!-- setup_inference_environment&#45;&gt;wait_for_model -->
<g id="edge3" class="edge">
<title>setup_inference_environment&#45;&gt;wait_for_model</title>
<path fill="none" stroke="black" d="M393.96,-18C402.12,-18 410.27,-18 418.12,-18"/>
<polygon fill="black" stroke="black" points="417.86,-21.5 427.86,-18 417.86,-14.5 417.86,-21.5"/>
</g>
<!-- wait_for_model&#45;&gt;run_inference_bash -->
<g id="edge4" class="edge">
<title>wait_for_model&#45;&gt;run_inference_bash</title>
<path fill="none" stroke="black" d="M532.91,-18C540.62,-18 548.7,-18 556.75,-18"/>
<polygon fill="black" stroke="black" points="556.57,-21.5 566.57,-18 556.57,-14.5 556.57,-21.5"/>
</g>
</g>
</svg>
