<?xml version="1.0" encoding="UTF-8" standalone="no"?>
<!DOCTYPE svg PUBLIC "-//W3C//DTD SVG 1.1//EN"
 "http://www.w3.org/Graphics/SVG/1.1/DTD/svg11.dtd">
<!-- Generated by graphviz version 13.1.2 (20250808.2320)
 -->
<!-- Title: training_pipeline_dag Pages: 1 -->
<svg width="951pt" height="69pt"
 viewBox="0.00 0.00 951.00 69.00" xmlns="http://www.w3.org/2000/svg" xmlns:xlink="http://www.w3.org/1999/xlink">
<g id="graph0" class="graph" transform="scale(1 1) rotate(0) translate(4 64.5)">
<title>training_pipeline_dag</title>
<polygon fill="white" stroke="none" points="-4,4 -4,-64.5 947.25,-64.5 947.25,4 -4,4"/>
<text xml:space="preserve" text-anchor="middle" x="471.62" y="-43.2" font-family="Times,serif" font-size="14.00">training_pipeline_dag</text>
<!-- check_training_prerequisites -->
<g id="node1" class="node">
<title>check_training_prerequisites</title>
<path fill="#ffefeb" stroke="#000000" d="M160,-36C160,-36 12,-36 12,-36 6,-36 0,-30 0,-24 0,-24 0,-12 0,-12 0,-6 6,0 12,0 12,0 160,0 160,0 166,0 172,-6 172,-12 172,-12 172,-24 172,-24 172,-30 166,-36 160,-36"/>
<text xml:space="preserve" text-anchor="middle" x="86" y="-12.95" font-family="Times,serif" font-size="14.00">check_training_prerequisites</text>
</g>
<!-- setup_training_environment -->
<g id="node3" class="node">
<title>setup_training_environment</title>
<path fill="#ffefeb" stroke="#000000" d="M365,-36C365,-36 220,-36 220,-36 214,-36 208,-30 208,-24 208,-24 208,-12 208,-12 208,-6 214,0 220,0 220,0 365,0 365,0 371,0 377,-6 377,-12 377,-12 377,-24 377,-24 377,-30 371,-36 365,-36"/>
<text xml:space="preserve" text-anchor="middle" x="292.5" y="-12.95" font-family="Times,serif" font-size="14.00">setup_training_environment</text>
</g>
<!-- check_training_prerequisites&#45;&gt;setup_training_environment -->
<g id="edge1" class="edge">
<title>check_training_prerequisites&#45;&gt;setup_training_environment</title>
<path fill="none" stroke="black" d="M172.25,-18C180.22,-18 188.33,-18 196.38,-18"/>
<polygon fill="black" stroke="black" points="196.19,-21.5 206.19,-18 196.19,-14.5 196.19,-21.5"/>
</g>
<!-- run_training_pipeline_bash -->
<g id="node2" class="node">
<title>run_training_pipeline_bash</title>
<path fill="#f0ede4" stroke="#000000" d="M741.25,-36C741.25,-36 600.75,-36 600.75,-36 594.75,-36 588.75,-30 588.75,-24 588.75,-24 588.75,-12 588.75,-12 588.75,-6 594.75,0 600.75,0 600.75,0 741.25,0 741.25,0 747.25,0 753.25,-6 753.25,-12 753.25,-12 753.25,-24 753.25,-24 753.25,-30 747.25,-36 741.25,-36"/>
<text xml:space="preserve" text-anchor="middle" x="671" y="-12.95" font-family="Times,serif" font-size="14.00">run_training_pipeline_bash</text>
</g>
<!-- validate_training_outputs -->
<g id="node4" class="node">
<title>validate_training_outputs</title>
<path fill="#ffefeb" stroke="#000000" d="M931.25,-36C931.25,-36 801.25,-36 801.25,-36 795.25,-36 789.25,-30 789.25,-24 789.25,-24 789.25,-12 789.25,-12 789.25,-6 795.25,0 801.25,0 801.25,0 931.25,0 931.25,0 937.25,0 943.25,-6 943.25,-12 943.25,-12 943.25,-24 943.25,-24 943.25,-30 937.25,-36 931.25,-36"/>
<text xml:space="preserve" text-anchor="middle" x="866.25" y="-12.95" font-family="Times,serif" font-size="14.00">validate_training_outputs</text>
</g>
<!-- run_training_pipeline_bash&#45;&gt;validate_training_outputs -->
<g id="edge2" class="edge">
<title>run_training_pipeline_bash&#45;&gt;validate_training_outputs</title>
<path fill="none" stroke="black" d="M753.68,-18C761.5,-18 769.45,-18 777.33,-18"/>
<polygon fill="black" stroke="black" points="777.27,-21.5 787.27,-18 777.27,-14.5 777.27,-21.5"/>
</g>
<!-- wait_for_training_data -->
<g id="node5" class="node">
<title>wait_for_training_data</title>
<path fill="#91818a" stroke="#000000" d="M540.75,-36C540.75,-36 425,-36 425,-36 419,-36 413,-30 413,-24 413,-24 413,-12 413,-12 413,-6 419,0 425,0 425,0 540.75,0 540.75,0 546.75,0 552.75,-6 552.75,-12 552.75,-12 552.75,-24 552.75,-24 552.75,-30 546.75,-36 540.75,-36"/>
<text xml:space="preserve" text-anchor="middle" x="482.88" y="-12.95" font-family="Times,serif" font-size="14.00">wait_for_training_data</text>
</g>
<!-- setup_training_environment&#45;&gt;wait_for_training_data -->
<g id="edge3" class="edge">
<title>setup_training_environment&#45;&gt;wait_for_training_data</title>
<path fill="none" stroke="black" d="M377.5,-18C385.41,-18 393.41,-18 401.29,-18"/>
<polygon fill="black" stroke="black" points="401.2,-21.5 411.2,-18 401.2,-14.5 401.2,-21.5"/>
</g>
<!-- wait_for_training_data&#45;&gt;run_training_pipeline_bash -->
<g id="edge4" class="edge">
<title>wait_for_training_data&#45;&gt;run_training_pipeline_bash</title>
<path fill="none" stroke="black" d="M553.18,-18C560.98,-18 569.01,-18 577.05,-18"/>
<polygon fill="black" stroke="black" points="576.87,-21.5 586.87,-18 576.87,-14.5 576.87,-21.5"/>
</g>
</g>
</svg>
